<?xml version="1.0" encoding="utf-8" standalone="no"?>
<!DOCTYPE svg PUBLIC "-//W3C//DTD SVG 1.1//EN"
  "http://www.w3.org/Graphics/SVG/1.1/DTD/svg11.dtd">
<svg xmlns:xlink="http://www.w3.org/1999/xlink" width="414pt" height="180pt" viewBox="0 0 414 180" xmlns="http://www.w3.org/2000/svg" version="1.1">
 <metadata>
  <rdf:RDF xmlns:dc="http://purl.org/dc/elements/1.1/" xmlns:cc="http://creativecommons.org/ns#" xmlns:rdf="http://www.w3.org/1999/02/22-rdf-syntax-ns#">
   <cc:Work>
    <dc:type rdf:resource="http://purl.org/dc/dcmitype/StillImage"/>
    <dc:date>2026-08-12T14:48:08.723858</dc:date>
    <dc:format>image/svg+xml</dc:format>
    <dc:creator>
     <cc:Agent>
      <dc:title>Matplotlib v3.10.9, https://matplotlib.org/</dc:title>
     </cc:Agent>
    </dc:creator>
   </cc:Work>
  </rdf:RDF>
 </metadata>
 <defs>
  <style type="text/css">*{stroke-linejoin: round; stroke-linecap: butt}</style>
 </defs>
 <g id="figure_1">
  <g id="patch_1">
   <path d="M 0 180 
L 414 180 
L 414 0 
L 0 0 
L 0 180 
z
" style="fill: none"/>
  </g>
  <g id="axes_1">
   <g id="patch_2">
    <path d="M 62.946719 139.811563 
L 403.2 139.811563 
L 403.2 10.8 
L 62.946719 10.8 
L 62.946719 139.811563 
z
" style="fill: none"/>
   </g>
   <g id="patch_3">
    <path d="M 233.077792 131.736868 
C 248.043324 131.736868 262.397922 125.790999 272.980151 115.20877 
C 283.56238 104.626541 289.508249 90.271943 289.508249 75.306411 
C 289.508249 60.340879 283.56238 45.986282 272.980151 35.404052 
C 262.397922 24.821823 248.043324 18.875954 233.077792 18.875954 
C 218.11226 18.875954 203.757662 24.821823 193.175433 35.404052 
C 182.593204 45.986282 176.647335 60.340879 176.647335 75.306411 
C 176.647335 90.271943 182.593204 104.626541 193.175433 115.20877 
C 203.757662 125.790999 218.11226 131.736868 233.077792 131.736868 
z
" clip-path="url(#p887d75cc64)" style="fill: #008800; stroke: #008800; stroke-linejoin: miter"/>
   </g>
   <g id="matplotlib.axis_1">
    <g id="xtick_1">
     <g id="line2d_1">
      <defs>
       <path id="m882fe53566" d="M 0 0 
L 0 3.5 
" style="stroke: #000000; stroke-width: 0.8"/>
      </defs>
      <g>
       <use xlink:href="#m882fe53566" x="100.365542" y="139.811563" style="stroke: #000000; stroke-width: 0.8"/>
      </g>
     </g>
     <g id="text_1">
      <!-- −15000 -->
      <g transform="translate(82.279058 153.650156) scale(0.09 -0.09)">
       <defs>
        <path id="DejaVuSans-2212" d="M 678 2272 
L 4684 2272 
L 4684 1741 
L 678 1741 
L 678 2272 
z
" transform="scale(0.015625)"/>
        <path id="DejaVuSans-31" d="M 794 531 
L 1825 531 
L 1825 4091 
L 703 3866 
L 703 4441 
L 1819 4666 
L 2450 4666 
L 2450 531 
L 3481 531 
L 3481 0 
L 794 0 
L 794 531 
z
" transform="scale(0.015625)"/>
        <path id="DejaVuSans-35" d="M 691 4666 
L 3169 4666 
L 3169 4134 
L 1269 4134 
L 1269 2991 
Q 1406 3038 1543 3061 
Q 1681 3084 1819 3084 
Q 2600 3084 3056 2656 
Q 3513 2228 3513 1497 
Q 3513 744 3044 326 
Q 2575 -91 1722 -91 
Q 1428 -91 1123 -41 
Q 819 9 494 109 
L 494 744 
Q 775 591 1075 516 
Q 1375 441 1709 441 
Q 2250 441 2565 725 
Q 2881 1009 2881 1497 
Q 2881 1984 2565 2268 
Q 2250 2553 1709 2553 
Q 1456 2553 1204 2497 
Q 953 2441 691 2322 
L 691 4666 
z
" transform="scale(0.015625)"/>
        <path id="DejaVuSans-30" d="M 2034 4250 
Q 1547 4250 1301 3770 
Q 1056 3291 1056 2328 
Q 1056 1369 1301 889 
Q 1547 409 2034 409 
Q 2525 409 2770 889 
Q 3016 1369 3016 2328 
Q 3016 3291 2770 3770 
Q 2525 4250 2034 4250 
z
M 2034 4750 
Q 2819 4750 3233 4129 
Q 3647 3509 3647 2328 
Q 3647 1150 3233 529 
Q 2819 -91 2034 -91 
Q 1250 -91 836 529 
Q 422 1150 422 2328 
Q 422 3509 836 4129 
Q 1250 4750 2034 4750 
z
" transform="scale(0.015625)"/>
       </defs>
       <use xlink:href="#DejaVuSans-2212"/>
       <use xlink:href="#DejaVuSans-31" transform="translate(83.789062 0)"/>
       <use xlink:href="#DejaVuSans-35" transform="translate(147.412109 0)"/>
       <use xlink:href="#DejaVuSans-30" transform="translate(211.035156 0)"/>
       <use xlink:href="#DejaVuSans-30" transform="translate(274.658203 0)"/>
       <use xlink:href="#DejaVuSans-30" transform="translate(338.28125 0)"/>
      </g>
     </g>
    </g>
    <g id="xtick_2">
     <g id="line2d_2">
      <g>
       <use xlink:href="#m882fe53566" x="144.602959" y="139.811563" style="stroke: #000000; stroke-width: 0.8"/>
      </g>
     </g>
     <g id="text_2">
      <!-- −10000 -->
      <g transform="translate(126.516474 153.650156) scale(0.09 -0.09)">
       <use xlink:href="#DejaVuSans-2212"/>
       <use xlink:href="#DejaVuSans-31" transform="translate(83.789062 0)"/>
       <use xlink:href="#DejaVuSans-30" transform="translate(147.412109 0)"/>
       <use xlink:href="#DejaVuSans-30" transform="translate(211.035156 0)"/>
       <use xlink:href="#DejaVuSans-30" transform="translate(274.658203 0)"/>
       <use xlink:href="#DejaVuSans-30" transform="translate(338.28125 0)"/>
      </g>
     </g>
    </g>
    <g id="xtick_3">
     <g id="line2d_3">
      <g>
       <use xlink:href="#m882fe53566" x="188.840375" y="139.811563" style="stroke: #000000; stroke-width: 0.8"/>
      </g>
     </g>
     <g id="text_3">
      <!-- −5000 -->
      <g transform="translate(173.617016 153.650156) scale(0.09 -0.09)">
       <use xlink:href="#DejaVuSans-2212"/>
       <use xlink:href="#DejaVuSans-35" transform="translate(83.789062 0)"/>
       <use xlink:href="#DejaVuSans-30" transform="translate(147.412109 0)"/>
       <use xlink:href="#DejaVuSans-30" transform="translate(211.035156 0)"/>
       <use xlink:href="#DejaVuSans-30" transform="translate(274.658203 0)"/>
      </g>
     </g>
    </g>
    <g id="xtick_4">
     <g id="line2d_4">
      <g>
       <use xlink:href="#m882fe53566" x="233.077792" y="139.811563" style="stroke: #000000; stroke-width: 0.8"/>
      </g>
     </g>
     <g id="text_4">
      <!-- 0 -->
      <g transform="translate(230.214667 153.650156) scale(0.09 -0.09)">
       <use xlink:href="#DejaVuSans-30"/>
      </g>
     </g>
    </g>
    <g id="xtick_5">
     <g id="line2d_5">
      <g>
       <use xlink:href="#m882fe53566" x="277.315208" y="139.811563" style="stroke: #000000; stroke-width: 0.8"/>
      </g>
     </g>
     <g id="text_5">
      <!-- 5000 -->
      <g transform="translate(265.862708 153.650156) scale(0.09 -0.09)">
       <use xlink:href="#DejaVuSans-35"/>
       <use xlink:href="#DejaVuSans-30" transform="translate(63.623047 0)"/>
       <use xlink:href="#DejaVuSans-30" transform="translate(127.246094 0)"/>
       <use xlink:href="#DejaVuSans-30" transform="translate(190.869141 0)"/>
      </g>
     </g>
    </g>
    <g id="xtick_6">
     <g id="line2d_6">
      <g>
       <use xlink:href="#m882fe53566" x="321.552625" y="139.811563" style="stroke: #000000; stroke-width: 0.8"/>
      </g>
     </g>
     <g id="text_6">
      <!-- 10000 -->
      <g transform="translate(307.237 153.650156) scale(0.09 -0.09)">
       <use xlink:href="#DejaVuSans-31"/>
       <use xlink:href="#DejaVuSans-30" transform="translate(63.623047 0)"/>
       <use xlink:href="#DejaVuSans-30" transform="translate(127.246094 0)"/>
       <use xlink:href="#DejaVuSans-30" transform="translate(190.869141 0)"/>
       <use xlink:href="#DejaVuSans-30" transform="translate(254.492188 0)"/>
      </g>
     </g>
    </g>
    <g id="xtick_7">
     <g id="line2d_7">
      <g>
       <use xlink:href="#m882fe53566" x="365.790042" y="139.811563" style="stroke: #000000; stroke-width: 0.8"/>
      </g>
     </g>
     <g id="text_7">
      <!-- 15000 -->
      <g transform="translate(351.474417 153.650156) scale(0.09 -0.09)">
       <use xlink:href="#DejaVuSans-31"/>
       <use xlink:href="#DejaVuSans-35" transform="translate(63.623047 0)"/>
       <use xlink:href="#DejaVuSans-30" transform="translate(127.246094 0)"/>
       <use xlink:href="#DejaVuSans-30" transform="translate(190.869141 0)"/>
       <use xlink:href="#DejaVuSans-30" transform="translate(254.492188 0)"/>
      </g>
     </g>
    </g>
    <g id="text_8">
     <!-- $i_e$ Cord. [km] -->
     <g transform="translate(201.173359 167.120313) scale(0.1 -0.1)">
      <defs>
       <path id="DejaVuSans-Oblique-69" d="M 1172 4863 
L 1747 4863 
L 1606 4134 
L 1031 4134 
L 1172 4863 
z
M 909 3500 
L 1484 3500 
L 800 0 
L 225 0 
L 909 3500 
z
" transform="scale(0.015625)"/>
       <path id="DejaVuSans-Oblique-65" d="M 3078 2063 
Q 3088 2113 3092 2166 
Q 3097 2219 3097 2272 
Q 3097 2653 2873 2875 
Q 2650 3097 2266 3097 
Q 1838 3097 1509 2826 
Q 1181 2556 1013 2059 
L 3078 2063 
z
M 3578 1613 
L 903 1613 
Q 884 1494 878 1425 
Q 872 1356 872 1306 
Q 872 872 1139 634 
Q 1406 397 1894 397 
Q 2269 397 2603 481 
Q 2938 566 3225 728 
L 3116 159 
Q 2806 34 2476 -28 
Q 2147 -91 1806 -91 
Q 1078 -91 686 257 
Q 294 606 294 1247 
Q 294 1794 489 2264 
Q 684 2734 1063 3103 
Q 1306 3334 1642 3459 
Q 1978 3584 2356 3584 
Q 2950 3584 3301 3228 
Q 3653 2872 3653 2272 
Q 3653 2128 3634 1964 
Q 3616 1800 3578 1613 
z
" transform="scale(0.015625)"/>
       <path id="DejaVuSans-20" transform="scale(0.015625)"/>
       <path id="DejaVuSans-43" d="M 4122 4306 
L 4122 3641 
Q 3803 3938 3442 4084 
Q 3081 4231 2675 4231 
Q 1875 4231 1450 3742 
Q 1025 3253 1025 2328 
Q 1025 1406 1450 917 
Q 1875 428 2675 428 
Q 3081 428 3442 575 
Q 3803 722 4122 1019 
L 4122 359 
Q 3791 134 3420 21 
Q 3050 -91 2638 -91 
Q 1578 -91 968 557 
Q 359 1206 359 2328 
Q 359 3453 968 4101 
Q 1578 4750 2638 4750 
Q 3056 4750 3426 4639 
Q 3797 4528 4122 4306 
z
" transform="scale(0.015625)"/>
       <path id="DejaVuSans-6f" d="M 1959 3097 
Q 1497 3097 1228 2736 
Q 959 2375 959 1747 
Q 959 1119 1226 758 
Q 1494 397 1959 397 
Q 2419 397 2687 759 
Q 2956 1122 2956 1747 
Q 2956 2369 2687 2733 
Q 2419 3097 1959 3097 
z
M 1959 3584 
Q 2709 3584 3137 3096 
Q 3566 2609 3566 1747 
Q 3566 888 3137 398 
Q 2709 -91 1959 -91 
Q 1206 -91 779 398 
Q 353 888 353 1747 
Q 353 2609 779 3096 
Q 1206 3584 1959 3584 
z
" transform="scale(0.015625)"/>
       <path id="DejaVuSans-72" d="M 2631 2963 
Q 2534 3019 2420 3045 
Q 2306 3072 2169 3072 
Q 1681 3072 1420 2755 
Q 1159 2438 1159 1844 
L 1159 0 
L 581 0 
L 581 3500 
L 1159 3500 
L 1159 2956 
Q 1341 3275 1631 3429 
Q 1922 3584 2338 3584 
Q 2397 3584 2469 3576 
Q 2541 3569 2628 3553 
L 2631 2963 
z
" transform="scale(0.015625)"/>
       <path id="DejaVuSans-64" d="M 2906 2969 
L 2906 4863 
L 3481 4863 
L 3481 0 
L 2906 0 
L 2906 525 
Q 2725 213 2448 61 
Q 2172 -91 1784 -91 
Q 1150 -91 751 415 
Q 353 922 353 1747 
Q 353 2572 751 3078 
Q 1150 3584 1784 3584 
Q 2172 3584 2448 3432 
Q 2725 3281 2906 2969 
z
M 947 1747 
Q 947 1113 1208 752 
Q 1469 391 1925 391 
Q 2381 391 2643 752 
Q 2906 1113 2906 1747 
Q 2906 2381 2643 2742 
Q 2381 3103 1925 3103 
Q 1469 3103 1208 2742 
Q 947 2381 947 1747 
z
" transform="scale(0.015625)"/>
       <path id="DejaVuSans-2e" d="M 684 794 
L 1344 794 
L 1344 0 
L 684 0 
L 684 794 
z
" transform="scale(0.015625)"/>
       <path id="DejaVuSans-5b" d="M 550 4863 
L 1875 4863 
L 1875 4416 
L 1125 4416 
L 1125 -397 
L 1875 -397 
L 1875 -844 
L 550 -844 
L 550 4863 
z
" transform="scale(0.015625)"/>
       <path id="DejaVuSans-6b" d="M 581 4863 
L 1159 4863 
L 1159 1991 
L 2875 3500 
L 3609 3500 
L 1753 1863 
L 3688 0 
L 2938 0 
L 1159 1709 
L 1159 0 
L 581 0 
L 581 4863 
z
" transform="scale(0.015625)"/>
       <path id="DejaVuSans-6d" d="M 3328 2828 
Q 3544 3216 3844 3400 
Q 4144 3584 4550 3584 
Q 5097 3584 5394 3201 
Q 5691 2819 5691 2113 
L 5691 0 
L 5113 0 
L 5113 2094 
Q 5113 2597 4934 2840 
Q 4756 3084 4391 3084 
Q 3944 3084 3684 2787 
Q 3425 2491 3425 1978 
L 3425 0 
L 2847 0 
L 2847 2094 
Q 2847 2600 2669 2842 
Q 2491 3084 2119 3084 
Q 1678 3084 1418 2786 
Q 1159 2488 1159 1978 
L 1159 0 
L 581 0 
L 581 3500 
L 1159 3500 
L 1159 2956 
Q 1356 3278 1631 3431 
Q 1906 3584 2284 3584 
Q 2666 3584 2933 3390 
Q 3200 3197 3328 2828 
z
" transform="scale(0.015625)"/>
       <path id="DejaVuSans-5d" d="M 1947 4863 
L 1947 -844 
L 622 -844 
L 622 -397 
L 1369 -397 
L 1369 4416 
L 622 4416 
L 622 4863 
L 1947 4863 
z
" transform="scale(0.015625)"/>
      </defs>
      <use xlink:href="#DejaVuSans-Oblique-69" transform="translate(0 0.015625)"/>
      <use xlink:href="#DejaVuSans-Oblique-65" transform="translate(27.783203 -16.390625) scale(0.7)"/>
      <use xlink:href="#DejaVuSans-20" transform="translate(73.583984 0.015625)"/>
      <use xlink:href="#DejaVuSans-43" transform="translate(105.371094 0.015625)"/>
      <use xlink:href="#DejaVuSans-6f" transform="translate(175.195312 0.015625)"/>
      <use xlink:href="#DejaVuSans-72" transform="translate(236.376953 0.015625)"/>
      <use xlink:href="#DejaVuSans-64" transform="translate(277.490234 0.015625)"/>
      <use xlink:href="#DejaVuSans-2e" transform="translate(340.966797 0.015625)"/>
      <use xlink:href="#DejaVuSans-20" transform="translate(372.753906 0.015625)"/>
      <use xlink:href="#DejaVuSans-5b" transform="translate(404.541016 0.015625)"/>
      <use xlink:href="#DejaVuSans-6b" transform="translate(443.554688 0.015625)"/>
      <use xlink:href="#DejaVuSans-6d" transform="translate(501.464844 0.015625)"/>
      <use xlink:href="#DejaVuSans-5d" transform="translate(598.876953 0.015625)"/>
     </g>
    </g>
   </g>
   <g id="matplotlib.axis_2">
    <g id="ytick_1">
     <g id="line2d_8">
      <defs>
       <path id="mf01533069c" d="M 0 0 
L -3.5 0 
" style="stroke: #000000; stroke-width: 0.8"/>
      </defs>
      <g>
       <use xlink:href="#mf01533069c" x="62.946719" y="119.543828" style="stroke: #000000; stroke-width: 0.8"/>
      </g>
     </g>
     <g id="text_9">
      <!-- −5000 -->
      <g transform="translate(25.5 122.963125) scale(0.09 -0.09)">
       <use xlink:href="#DejaVuSans-2212"/>
       <use xlink:href="#DejaVuSans-35" transform="translate(83.789062 0)"/>
       <use xlink:href="#DejaVuSans-30" transform="translate(147.412109 0)"/>
       <use xlink:href="#DejaVuSans-30" transform="translate(211.035156 0)"/>
       <use xlink:href="#DejaVuSans-30" transform="translate(274.658203 0)"/>
      </g>
     </g>
    </g>
    <g id="ytick_2">
     <g id="line2d_9">
      <g>
       <use xlink:href="#mf01533069c" x="62.946719" y="97.42512" style="stroke: #000000; stroke-width: 0.8"/>
      </g>
     </g>
     <g id="text_10">
      <!-- −2500 -->
      <g transform="translate(25.5 100.844416) scale(0.09 -0.09)">
       <defs>
        <path id="DejaVuSans-32" d="M 1228 531 
L 3431 531 
L 3431 0 
L 469 0 
L 469 531 
Q 828 903 1448 1529 
Q 2069 2156 2228 2338 
Q 2531 2678 2651 2914 
Q 2772 3150 2772 3378 
Q 2772 3750 2511 3984 
Q 2250 4219 1831 4219 
Q 1534 4219 1204 4116 
Q 875 4013 500 3803 
L 500 4441 
Q 881 4594 1212 4672 
Q 1544 4750 1819 4750 
Q 2544 4750 2975 4387 
Q 3406 4025 3406 3419 
Q 3406 3131 3298 2873 
Q 3191 2616 2906 2266 
Q 2828 2175 2409 1742 
Q 1991 1309 1228 531 
z
" transform="scale(0.015625)"/>
       </defs>
       <use xlink:href="#DejaVuSans-2212"/>
       <use xlink:href="#DejaVuSans-32" transform="translate(83.789062 0)"/>
       <use xlink:href="#DejaVuSans-35" transform="translate(147.412109 0)"/>
       <use xlink:href="#DejaVuSans-30" transform="translate(211.035156 0)"/>
       <use xlink:href="#DejaVuSans-30" transform="translate(274.658203 0)"/>
      </g>
     </g>
    </g>
    <g id="ytick_3">
     <g id="line2d_10">
      <g>
       <use xlink:href="#mf01533069c" x="62.946719" y="75.306411" style="stroke: #000000; stroke-width: 0.8"/>
      </g>
     </g>
     <g id="text_11">
      <!-- 0 -->
      <g transform="translate(50.220469 78.725708) scale(0.09 -0.09)">
       <use xlink:href="#DejaVuSans-30"/>
      </g>
     </g>
    </g>
    <g id="ytick_4">
     <g id="line2d_11">
      <g>
       <use xlink:href="#mf01533069c" x="62.946719" y="53.187703" style="stroke: #000000; stroke-width: 0.8"/>
      </g>
     </g>
     <g id="text_12">
      <!-- 2500 -->
      <g transform="translate(33.041719 56.607) scale(0.09 -0.09)">
       <use xlink:href="#DejaVuSans-32"/>
       <use xlink:href="#DejaVuSans-35" transform="translate(63.623047 0)"/>
       <use xlink:href="#DejaVuSans-30" transform="translate(127.246094 0)"/>
       <use xlink:href="#DejaVuSans-30" transform="translate(190.869141 0)"/>
      </g>
     </g>
    </g>
    <g id="ytick_5">
     <g id="line2d_12">
      <g>
       <use xlink:href="#mf01533069c" x="62.946719" y="31.068995" style="stroke: #000000; stroke-width: 0.8"/>
      </g>
     </g>
     <g id="text_13">
      <!-- 5000 -->
      <g transform="translate(33.041719 34.488292) scale(0.09 -0.09)">
       <use xlink:href="#DejaVuSans-35"/>
       <use xlink:href="#DejaVuSans-30" transform="translate(63.623047 0)"/>
       <use xlink:href="#DejaVuSans-30" transform="translate(127.246094 0)"/>
       <use xlink:href="#DejaVuSans-30" transform="translate(190.869141 0)"/>
      </g>
     </g>
    </g>
    <g id="text_14">
     <!-- $i_p$ Cord. [km] -->
     <g transform="translate(18.4 107.305781) rotate(-90) scale(0.1 -0.1)">
      <defs>
       <path id="DejaVuSans-Oblique-70" d="M 3175 2156 
Q 3175 2616 2975 2859 
Q 2775 3103 2400 3103 
Q 2144 3103 1911 2972 
Q 1678 2841 1497 2591 
Q 1319 2344 1212 1994 
Q 1106 1644 1106 1300 
Q 1106 863 1306 627 
Q 1506 391 1875 391 
Q 2147 391 2380 519 
Q 2613 647 2778 891 
Q 2956 1147 3065 1494 
Q 3175 1841 3175 2156 
z
M 1394 2969 
Q 1625 3272 1939 3428 
Q 2253 3584 2638 3584 
Q 3175 3584 3472 3232 
Q 3769 2881 3769 2247 
Q 3769 1728 3584 1258 
Q 3400 788 3053 416 
Q 2822 169 2531 39 
Q 2241 -91 1919 -91 
Q 1547 -91 1294 64 
Q 1041 219 916 525 
L 556 -1331 
L -19 -1331 
L 922 3500 
L 1497 3500 
L 1394 2969 
z
" transform="scale(0.015625)"/>
      </defs>
      <use xlink:href="#DejaVuSans-Oblique-69" transform="translate(0 0.015625)"/>
      <use xlink:href="#DejaVuSans-Oblique-70" transform="translate(27.783203 -16.390625) scale(0.7)"/>
      <use xlink:href="#DejaVuSans-20" transform="translate(74.951172 0.015625)"/>
      <use xlink:href="#DejaVuSans-43" transform="translate(106.738281 0.015625)"/>
      <use xlink:href="#DejaVuSans-6f" transform="translate(176.5625 0.015625)"/>
      <use xlink:href="#DejaVuSans-72" transform="translate(237.744141 0.015625)"/>
      <use xlink:href="#DejaVuSans-64" transform="translate(278.857422 0.015625)"/>
      <use xlink:href="#DejaVuSans-2e" transform="translate(342.333984 0.015625)"/>
      <use xlink:href="#DejaVuSans-20" transform="translate(374.121094 0.015625)"/>
      <use xlink:href="#DejaVuSans-5b" transform="translate(405.908203 0.015625)"/>
      <use xlink:href="#DejaVuSans-6b" transform="translate(444.921875 0.015625)"/>
      <use xlink:href="#DejaVuSans-6d" transform="translate(502.832031 0.015625)"/>
      <use xlink:href="#DejaVuSans-5d" transform="translate(600.244141 0.015625)"/>
     </g>
    </g>
   </g>
   <g id="line2d_13">
    <path d="M 250.125245 19.196635 
L 246.815525 18.295905 
L 243.458808 17.590217 
L 240.06658 17.081985 
L 236.650445 16.772948 
L 233.222091 16.664162 
L 229.793246 16.755999 
L 226.375641 17.048144 
L 222.980967 17.539597 
L 219.620838 18.228676 
L 216.306749 19.113023 
L 213.050038 20.189612 
L 209.861845 21.454759 
L 206.753078 22.904135 
L 203.734371 24.532781 
L 200.816051 26.335123 
L 198.008102 28.304997 
L 195.320129 30.435661 
L 192.761327 32.719825 
L 190.340449 35.149676 
L 188.065775 37.716901 
L 185.945087 40.412715 
L 183.985639 43.227896 
L 182.194133 46.152814 
L 180.576697 49.177462 
L 179.138864 52.291492 
L 177.885551 55.48425 
L 176.821046 58.744815 
L 175.948988 62.062032 
L 175.272361 65.424554 
L 174.793479 68.820878 
L 174.513979 72.239385 
L 174.434816 75.668381 
L 174.556263 79.096138 
L 174.877901 82.510928 
L 175.398632 85.90107 
L 176.116673 89.254967 
L 177.029569 92.561146 
L 178.134195 95.808296 
L 179.426774 98.985309 
L 180.902884 102.081317 
L 182.557476 105.085729 
L 184.384889 107.988267 
L 186.378873 110.779001 
L 188.532607 113.448384 
L 190.838724 115.987284 
L 193.289335 118.387016 
L 195.876059 120.63937 
L 198.590046 122.736639 
L 201.422013 124.671648 
L 204.362273 126.437777 
L 207.400767 128.028982 
L 210.527101 129.439818 
L 213.730581 130.665458 
L 217.000248 131.701706 
L 220.324916 132.545017 
L 223.693211 133.192503 
L 227.093611 133.641946 
L 230.514482 133.891809 
L 233.944119 133.941232 
L 237.370789 133.790046 
L 240.782769 133.438765 
L 244.168384 132.888588 
L 247.516051 132.141396 
L 250.814315 131.199744 
L 254.051889 130.066849 
L 257.217696 128.746588 
L 260.300902 127.243474 
L 263.290955 125.562648 
L 266.177624 123.709861 
L 268.951028 121.691449 
L 271.601677 119.514318 
L 274.120499 117.185915 
L 276.498873 114.714205 
L 278.728658 112.107644 
L 280.802223 109.375152 
L 282.712468 106.526077 
L 284.452856 103.570167 
L 286.017427 100.517537 
L 287.400826 97.378632 
L 288.598316 94.164193 
L 289.605796 90.885219 
L 290.419817 87.552933 
L 291.037589 84.178736 
L 291.456998 80.774177 
L 291.676603 77.350909 
L 291.695653 73.920646 
L 291.51408 70.495131 
L 291.132502 67.086085 
L 290.552224 63.705177 
L 289.775231 60.363979 
L 288.804179 57.073928 
L 287.642391 53.846286 
L 286.293842 50.6921 
L 284.763146 47.622166 
L 283.055541 44.646995 
L 281.176871 41.776769 
L 279.133565 39.021315 
L 276.932617 36.390064 
L 274.581559 33.892023 
L 272.088438 31.535745 
L 269.461786 29.329294 
L 266.710595 27.280224 
L 263.844281 25.395549 
L 260.872655 23.681722 
L 257.805889 22.144609 
L 254.654481 20.789473 
L 251.429219 19.620953 
L 248.141142 18.643047 
L 244.801506 17.859106 
L 241.421742 17.27181 
L 238.01342 16.883172 
L 234.588207 16.694521 
L 231.157826 16.706503 
L 227.734021 16.919076 
L 224.328512 17.331513 
L 220.952955 17.942401 
L 217.618905 18.749649 
L 214.337775 19.750494 
L 211.120797 20.941507 
L 207.978982 22.318614 
L 204.923085 23.877097 
L 201.963565 25.611624 
L 199.110552 27.516255 
L 196.373813 29.584471 
L 193.762714 31.809191 
L 191.286192 34.1828 
L 188.952726 36.697173 
L 186.770301 39.343702 
L 184.746387 42.113328 
L 182.887911 44.99657 
L 181.201235 47.983559 
L 179.692131 51.064071 
L 178.365766 54.227558 
L 177.226677 57.463194 
L 176.278764 60.759902 
L 175.525271 64.106399 
L 174.968777 67.491229 
L 174.611186 70.902806 
L 174.453722 74.329453 
L 174.496924 77.759439 
L 174.740643 81.181026 
L 175.184046 84.582501 
L 175.825614 87.952221 
L 176.663151 91.278653 
L 177.693792 94.550409 
L 178.914008 97.75629 
L 180.319623 100.885323 
L 181.905825 103.926798 
L 183.667187 106.870302 
L 185.597679 109.705761 
L 187.690695 112.423468 
L 189.939069 115.014119 
L 192.335108 117.468847 
L 194.870609 119.779248 
L 197.536893 121.937411 
L 200.324836 123.93595 
L 203.224894 125.76802 
L 206.22714 127.42735 
L 209.321299 128.908259 
L 212.496777 130.205674 
L 215.742707 131.315153 
L 219.047976 132.232896 
L 222.40127 132.955761 
L 225.791111 133.481269 
L 229.205894 133.807621 
L 232.633928 133.933697 
L 236.063478 133.859063 
L 239.482803 133.583973 
L 242.880197 133.109365 
L 246.244027 132.436863 
L 249.562778 131.568765 
L 252.825085 130.508043 
L 256.019778 129.258325 
L 259.135918 127.823888 
L 262.162836 126.209641 
L 265.090166 124.421108 
L 267.907884 122.46441 
L 270.60634 120.346245 
L 273.176294 118.073865 
L 275.608944 115.655046 
L 277.895958 113.098071 
L 280.029503 110.411692 
L 282.002272 107.605107 
L 283.807505 104.687925 
L 285.43902 101.670134 
L 286.891227 98.562067 
L 288.159151 95.374366 
L 289.238447 92.117947 
L 290.125417 88.803961 
L 290.81702 85.443755 
L 291.310887 82.048838 
L 291.605323 78.630834 
L 291.699318 75.201448 
L 291.592547 71.772425 
L 291.285374 68.355508 
L 290.778849 64.9624 
L 290.074703 61.604721 
L 289.175348 58.293974 
L 288.083861 55.041498 
L 286.803978 51.858434 
L 285.340083 48.755684 
L 283.697187 45.743877 
L 281.880916 42.833329 
L 279.897489 40.03401 
L 277.7537 37.355508 
L 275.456889 34.806999 
L 273.014923 32.397213 
L 270.436165 30.134405 
L 267.729447 28.026326 
L 264.904041 26.080199 
L 261.969624 24.302689 
L 258.936248 22.699888 
L 255.814301 21.277284 
L 252.614478 20.039753 
L 249.347738 18.991532 
L 246.025271 18.136213 
L 242.658457 17.476727 
L 239.25883 17.015333 
L 235.838033 16.753611 
L 232.407787 16.692458 
L 228.97984 16.832085 
L 225.565934 17.172012 
L 222.177764 17.711076 
L 218.826935 18.44743 
L 215.524925 19.378552 
L 212.283045 20.501253 
L 209.112399 21.811685 
L 206.02385 23.305362 
L 203.027976 24.977165 
L 200.13504 26.821368 
L 197.354953 28.831653 
L 194.697238 31.001133 
L 192.170999 33.322377 
L 189.784888 35.787432 
L 187.54708 38.387854 
L 185.465239 41.114737 
L 183.546497 43.958739 
L 181.797425 46.910118 
L 180.224014 49.958764 
L 178.831655 53.094235 
L 177.625117 56.305788 
L 176.608532 59.582423 
L 175.785383 62.912916 
L 175.158489 66.28586 
L 174.729997 69.6897 
L 174.501376 73.112777 
L 174.473409 76.543363 
L 174.646191 79.969709 
L 175.019132 83.380076 
L 175.590954 86.762783 
L 176.359698 90.106242 
L 177.322732 93.399 
L 178.476757 96.629777 
L 179.81782 99.787505 
L 181.341329 102.861367 
L 183.042064 105.840832 
L 184.914201 108.715694 
L 186.951327 111.476104 
L 189.146464 114.112606 
L 191.492094 116.616167 
L 193.980182 118.97821 
L 196.602205 121.190641 
L 199.349182 123.245882 
L 202.211703 125.136889 
L 205.179961 126.857183 
L 208.243789 128.400869 
L 211.392691 129.762658 
L 214.61588 130.937881 
L 217.902315 131.922512 
L 221.240736 132.713175 
L 224.619707 133.30716 
L 228.027652 133.702429 
L 231.452894 133.897627 
L 234.8837 133.892081 
L 238.308314 133.68581 
L 241.715004 133.279517 
L 245.092095 132.674592 
L 248.428017 131.873105 
L 251.711339 130.877801 
L 254.93081 129.692086 
L 258.075397 128.320022 
L 261.134325 126.766308 
L 264.097111 125.036265 
L 266.953601 123.135818 
L 269.694006 121.071479 
L 272.308934 118.850317 
L 274.789422 116.479943 
L 277.126969 113.968476 
L 279.313563 111.324521 
L 281.341709 108.557137 
L 283.204452 105.675806 
L 284.895409 102.6904 
L 286.40878 99.61115 
L 287.739377 96.448608 
L 288.882636 93.213612 
L 289.834638 89.917248 
L 290.592117 86.570812 
L 291.152475 83.185772 
L 291.513789 79.77373 
L 291.674817 76.346381 
L 291.635005 72.915473 
L 291.394488 69.492764 
L 290.954088 66.089987 
L 290.315312 62.718806 
L 289.480347 59.390775 
L 288.452055 56.117302 
L 287.233957 52.909608 
L 285.830226 49.778688 
L 284.245674 46.735276 
L 282.48573 43.789805 
L 280.556426 40.952372 
L 278.464373 38.232703 
L 276.216742 35.640124 
L 273.821237 33.183521 
L 271.286069 30.871317 
L 268.619928 28.711439 
L 265.831952 26.711293 
L 262.9317 24.877735 
L 259.929112 23.217053 
L 256.834483 21.734939 
L 253.658419 20.436476 
L 250.411807 19.326114 
L 247.105778 18.40766 
L 243.751664 17.684264 
L 240.360963 17.158405 
L 236.945299 16.831888 
L 233.51638 16.705831 
L 230.085962 16.780667 
L 226.665806 17.05614 
L 223.267636 17.531307 
L 219.903102 18.204537 
L 216.583738 19.073523 
L 213.320923 20.135287 
L 210.125844 21.386189 
L 207.009454 22.82194 
L 203.982438 24.437617 
L 201.055173 26.227682 
L 198.237696 28.185998 
L 195.539664 30.305851 
L 192.970325 32.579976 
L 190.538489 35.000576 
L 188.252493 37.559352 
L 186.120173 40.247533 
L 184.14884 43.055902 
L 182.345254 45.97483 
L 180.715597 48.994313 
L 179.265456 52.103997 
L 177.999803 55.293223 
L 176.922978 58.551057 
L 176.038672 61.866331 
L 175.349918 65.227678 
L 174.859077 68.623575 
L 174.567833 72.042378 
L 174.477185 75.472367 
L 174.587445 78.901781 
L 174.898234 82.318864 
L 175.408489 85.711899 
L 176.116461 89.069254 
L 177.019723 92.379419 
L 178.115179 95.631044 
L 179.399075 98.81298 
L 180.86701 101.914318 
L 182.513952 104.924425 
L 184.334256 107.832979 
L 186.321681 110.630007 
L 188.469415 113.305919 
L 190.770095 115.851538 
L 193.215835 118.258137 
L 195.798249 120.517462 
L 198.508484 122.621764 
L 201.337247 124.563826 
L 204.27484 126.336989 
L 207.311191 127.935169 
L 210.43589 129.352885 
L 213.638221 130.585274 
L 216.907206 131.628108 
L 220.231636 132.47781 
L 223.600111 133.131462 
L 227.001081 133.586823 
L 230.422884 133.842327 
L 233.853785 133.897096 
L 237.282017 133.750941 
L 240.695824 133.40436 
L 244.083499 132.858538 
L 247.433425 132.115346 
L 250.734113 131.177329 
L 253.974243 130.047701 
L 257.142703 128.730335 
L 260.228624 127.229745 
L 263.221421 125.551075 
L 266.110828 123.700081 
L 268.886934 121.683109 
L 271.540215 119.507075 
L 274.061568 117.17944 
L 276.442344 114.708186 
L 278.674374 112.101787 
L 280.75 109.369181 
L 282.662101 106.51974 
L 284.404115 103.563237 
L 285.970063 100.509812 
L 287.354572 97.36994 
L 288.552889 94.154388 
L 289.560903 90.874186 
L 290.375152 87.540584 
L 290.992841 84.165017 
L 291.411848 80.759063 
L 291.630734 77.334406 
L 291.648744 73.902796 
L 291.465814 70.476006 
L 291.082569 67.065793 
L 290.500321 63.683858 
L 289.721066 60.341805 
L 288.747476 57.051101 
L 287.582888 53.823038 
L 286.231297 50.668694 
L 284.697338 47.598888 
L 282.986271 44.624156 
L 281.103966 41.754704 
L 279.05688 39.000378 
L 276.852034 36.370631 
L 274.496994 33.874487 
L 271.999836 31.520511 
L 269.369129 29.31678 
L 266.613898 27.27086 
L 263.743596 25.38977 
L 260.768071 23.679968 
L 257.697536 22.147322 
L 254.542524 20.797093 
L 251.313862 19.633915 
L 248.022629 18.661781 
L 244.680118 17.884028 
L 241.297799 17.303326 
L 237.887278 16.921669 
L 234.46026 16.740369 
L 231.028504 16.760047 
L 227.603787 16.980638 
L 224.197862 17.401386 
L 220.822418 18.020847 
L 217.489037 18.836897 
L 214.209159 19.846737 
L 210.994041 21.046901 
L 207.854717 22.433271 
L 204.801961 24.001091 
L 201.846252 25.74498 
L 198.99773 27.658954 
L 196.266174 29.736446 
L 193.660958 31.970327 
L 191.191024 34.35293 
L 188.864848 36.876079 
L 186.690416 39.531116 
L 184.67519 42.308928 
L 182.826088 45.199982 
L 181.149457 48.194356 
L 179.651052 51.281775 
L 178.336015 54.451643 
L 177.208861 57.693081 
L 176.27346 60.994964 
L 175.533023 64.34596 
L 174.990093 67.734567 
L 174.646535 71.149153 
L 174.503528 74.578 
L 174.561566 78.009338 
L 174.82045 81.431392 
L 175.279293 84.832415 
L 175.936521 88.200735 
L 176.789881 91.524789 
L 177.836445 94.793169 
L 179.072623 97.994654 
L 180.494172 101.118254 
L 182.096214 104.153247 
L 183.873253 107.089214 
L 185.81919 109.916074 
L 187.927346 112.624122 
L 190.190487 115.204063 
L 192.600846 117.647039 
L 195.15015 119.94466 
L 197.829649 122.089038 
L 200.630145 124.072809 
L 203.542026 125.88916 
L 206.555296 127.531854 
L 209.659613 128.99525 
L 212.844321 130.274321 
L 216.098489 131.364673 
L 219.410946 132.262561 
L 222.77032 132.964898 
L 226.165076 133.469271 
L 229.58356 133.773943 
L 233.014034 133.877866 
L 236.444721 133.78068 
L 239.863839 133.482714 
L 243.259648 132.98499 
L 246.620486 132.289211 
L 249.934814 131.397765 
L 253.191247 130.313709 
L 256.378604 129.040763 
L 259.485937 127.583294 
L 262.502574 125.946303 
L 265.418153 124.135411 
L 268.222662 122.156832 
L 270.906467 120.017357 
L 273.460349 117.724332 
L 275.875533 115.28563 
L 278.143722 112.709623 
L 280.257123 110.005158 
L 282.208474 107.181519 
L 283.99107 104.248405 
L 285.598785 101.215888 
L 287.026092 98.094383 
L 288.268087 94.894613 
L 289.3205 91.627565 
L 290.179713 88.30446 
L 290.842772 84.936714 
L 291.307394 81.535896 
L 291.571981 78.113688 
L 291.635621 74.681846 
L 291.498092 71.252159 
L 291.159863 67.836407 
L 290.622093 64.446326 
L 289.886627 61.093564 
L 288.95599 57.78964 
L 287.833374 54.545908 
L 286.522636 51.373512 
L 285.028275 48.283353 
L 283.355425 45.286051 
L 281.509832 42.391906 
L 279.497833 39.610863 
L 277.326341 36.952479 
L 275.002815 34.42589 
L 272.535236 32.039778 
L 269.932083 29.802345 
L 267.2023 27.721282 
L 264.355265 25.80374 
L 261.40076 24.056311 
L 258.348935 22.485 
L 255.210276 21.095209 
L 251.995566 19.891715 
L 248.715854 18.878656 
L 245.382408 18.059516 
L 242.006686 17.437113 
L 238.600288 17.013586 
L 235.174921 16.790394 
L 231.742353 16.768306 
L 228.314384 16.9474 
L 224.902795 17.327062 
L 221.519312 17.905988 
L 218.175565 18.682193 
L 214.883044 19.653009 
L 211.653069 20.815101 
L 208.496742 22.164477 
L 205.424912 23.696501 
L 202.448138 25.405908 
L 199.576651 27.286826 
L 196.820322 29.332792 
L 194.188626 31.536775 
L 191.69061 33.8912 
L 189.334862 36.387976 
L 187.129481 39.018523 
L 185.08205 41.773798 
L 183.199608 44.644333 
L 181.488629 47.620261 
L 179.954996 50.691352 
L 178.603982 53.84705 
L 177.440235 57.07651 
L 176.467757 60.368629 
L 175.689892 63.712091 
L 175.109318 67.095403 
L 174.728034 70.506933 
L 174.547352 73.934952 
L 174.567896 77.367673 
L 174.789598 80.793296 
L 175.211699 84.200044 
L 175.83275 87.576204 
L 176.650619 90.910168 
L 177.662496 94.190473 
L 178.864904 97.405838 
L 180.253714 100.545208 
L 181.824152 103.597787 
L 183.570821 106.553077 
L 185.487718 109.400915 
L 187.568252 112.131503 
L 189.805273 114.735452 
L 192.191089 117.203803 
L 194.717499 119.528067 
L 197.375817 121.700248 
L 200.156904 123.712875 
L 203.051198 125.559022 
L 206.048747 127.232337 
L 209.139243 128.727063 
L 212.312061 130.038054 
L 215.556288 131.1608 
L 218.86077 132.091435 
L 222.214142 132.826754 
L 225.60487 133.364225 
L 229.021292 133.701993 
L 232.451654 133.838893 
L 235.884157 133.77445 
L 239.306991 133.508881 
L 242.708382 133.043096 
L 246.076627 132.378694 
L 249.400139 131.517954 
L 252.667484 130.463836 
L 255.867417 129.21996 
L 258.988931 127.790603 
L 262.021283 126.180677 
L 264.954039 124.395718 
L 267.777108 122.441862 
L 270.480772 120.325828 
L 273.055728 118.054891 
L 275.493114 115.636861 
L 277.784538 113.080056 
L 279.92211 110.393272 
L 281.898469 107.585753 
L 283.706809 104.667158 
L 285.340903 101.647531 
L 286.795121 98.537262 
L 288.064455 95.347055 
L 289.144532 92.087885 
L 290.03163 88.770967 
L 290.722692 85.407717 
L 291.215333 82.009714 
L 291.507854 78.588655 
L 291.599242 75.156312 
L 291.489178 71.724501 
L 291.178037 68.305035 
L 290.666886 64.909684 
L 289.957479 61.55014 
L 289.052253 58.237967 
L 287.954321 54.984569 
L 286.667458 51.80115 
L 285.196092 48.698672 
L 283.545284 45.687822 
L 281.720714 42.778965 
L 279.728661 39.982122 
L 277.575979 37.306922 
L 275.270078 34.762583 
L 272.818893 32.357865 
L 270.230861 30.101053 
L 267.514896 27.999925 
L 264.680349 26.061721 
L 261.736982 24.29312 
L 258.694928 22.700216 
L 255.564659 21.288497 
L 252.356954 20.062829 
L 249.082862 19.027437 
L 245.753659 18.185892 
L 242.380811 17.541096 
L 238.975933 17.095273 
L 235.550755 16.849963 
L 232.117073 16.806014 
L 228.686716 16.963582 
L 225.271503 17.322127 
L 221.8832 17.880419 
L 218.53348 18.636536 
L 215.23388 19.587878 
L 211.995767 20.731172 
L 208.830298 22.062483 
L 205.748382 23.577226 
L 202.760639 25.270187 
L 199.877366 27.135534 
L 197.108497 29.166844 
L 194.463576 31.357122 
L 191.951718 33.698823 
L 189.581581 36.183881 
L 187.361336 38.803733 
L 185.298636 41.549355 
L 183.400592 44.411289 
L 181.673746 47.379675 
L 180.124054 50.444284 
L 178.756861 53.594554 
L 177.576883 56.819628 
L 176.58819 60.108391 
L 175.794192 63.449511 
L 175.197631 66.831475 
L 174.800564 70.242627 
L 174.604366 73.67121 
L 174.609717 77.10541 
L 174.816602 80.533392 
L 175.224313 83.943335 
L 175.831449 87.323485 
L 176.635921 90.662188 
L 177.634962 93.947935 
L 178.825132 97.169396 
L 180.202332 100.315464 
L 181.76182 103.375289 
L 183.498222 106.338318 
L 185.405557 109.194335 
L 187.477255 111.933488 
L 189.706175 114.546328 
L 192.084636 117.023841 
L 194.604439 119.357478 
L 197.256898 121.539186 
L 200.032872 123.561439 
L 202.922794 125.417258 
L 205.916699 127.100236 
L 209.004267 128.604564 
L 212.174852 129.925045 
L 215.417519 131.057119 
L 218.721083 131.996871 
L 222.07415 132.741053 
L 225.465155 133.28709 
L 228.8824 133.633089 
L 232.314096 133.77785 
L 235.7484 133.720864 
L 239.173462 133.462319 
L 242.577459 133.0031 
L 245.948646 132.344783 
L 249.275387 131.48963 
L 252.546199 130.440585 
L 255.749791 129.20126 
L 258.875103 127.775923 
L 261.911341 126.169488 
L 264.848015 124.387493 
L 267.674987 122.43608 
L 270.382491 120.32198 
L 272.961169 118.052485 
L 275.402114 115.635425 
L 277.696891 113.079137 
L 279.837569 110.392442 
L 281.816749 107.584609 
L 283.627587 104.66533 
L 285.263819 101.644684 
L 286.719783 98.533103 
L 287.990441 95.341329 
L 289.071392 92.080387 
L 289.958893 88.761536 
L 290.649867 85.39624 
L 291.141916 81.996127 
L 291.433329 78.572941 
L 291.523087 75.138504 
L 291.41087 71.704682 
L 291.097053 68.28334 
L 290.582707 64.886305 
L 289.869599 61.525322 
L 288.960183 58.212019 
L 287.857592 54.957857 
L 286.565624 51.774088 
L 285.088735 48.671719 
L 283.432019 45.661488 
L 281.601199 42.753816 
L 279.602596 39.958766 
L 277.443115 37.286016 
L 275.130212 34.744818 
L 272.671882 32.343972 
L 270.07662 30.091794 
L 267.3534 27.996088 
L 264.511635 26.064115 
L 261.561147 24.302571 
L 258.512148 22.717565 
L 255.375194 21.314603 
L 252.161139 20.098553 
L 248.881099 19.073634 
L 245.546424 18.24341 
L 242.168646 17.610765 
L 238.759451 17.177906 
L 235.330638 16.946347 
L 231.89408 16.916906 
L 228.46168 17.089705 
L 225.045328 17.464162 
L 221.656861 18.038998 
L 218.308029 18.812239 
L 215.01045 19.781223 
L 211.775565 20.942605 
L 210.501687 21.460154 
L 210.501687 21.460154 
" clip-path="url(#p887d75cc64)" style="fill: none; stroke: #aa0000; stroke-linecap: square"/>
   </g>
   <g id="patch_4">
    <path d="M 62.946719 139.811563 
L 62.946719 10.8 
" style="fill: none; stroke: #000000; stroke-width: 0.8; stroke-linejoin: miter; stroke-linecap: square"/>
   </g>
   <g id="patch_5">
    <path d="M 403.2 139.811563 
L 403.2 10.8 
" style="fill: none; stroke: #000000; stroke-width: 0.8; stroke-linejoin: miter; stroke-linecap: square"/>
   </g>
   <g id="patch_6">
    <path d="M 62.946719 139.811563 
L 403.2 139.811563 
" style="fill: none; stroke: #000000; stroke-width: 0.8; stroke-linejoin: miter; stroke-linecap: square"/>
   </g>
   <g id="patch_7">
    <path d="M 62.946719 10.8 
L 403.2 10.8 
" style="fill: none; stroke: #000000; stroke-width: 0.8; stroke-linejoin: miter; stroke-linecap: square"/>
   </g>
  </g>
 </g>
 <defs>
  <clipPath id="p887d75cc64">
   <rect x="62.946719" y="10.8" width="340.253281" height="129.011562"/>
  </clipPath>
 </defs>
</svg>
